<mxfile host="app.diagrams.net" agent="Mozilla/5.0 (Windows NT 10.0; Win64; x64) AppleWebKit/537.36 (KHTML, like Gecko) Chrome/126.0.0.0 Safari/537.36" version="24.7.4">
  <diagram name="Page-1" id="YutSI7smavdidKVXhJqC">
    <mxGraphModel dx="1687" dy="868" grid="1" gridSize="10" guides="1" tooltips="1" connect="1" arrows="1" fold="1" page="1" pageScale="1" pageWidth="1100" pageHeight="850" math="0" shadow="0">
      <root>
        <mxCell id="0" />
        <mxCell id="1" parent="0" />
        <mxCell id="x8476iQVBlh_GbGHP3KB-11" value="Attitude Controller" style="rounded=0;whiteSpace=wrap;html=1;dashed=1;" vertex="1" parent="1">
          <mxGeometry x="570" y="100" width="120" height="60" as="geometry" />
        </mxCell>
        <mxCell id="x8476iQVBlh_GbGHP3KB-12" value="Data log" style="rounded=0;whiteSpace=wrap;html=1;" vertex="1" parent="1">
          <mxGeometry x="9.999999999999947" y="500" width="120" height="60" as="geometry" />
        </mxCell>
        <mxCell id="x8476iQVBlh_GbGHP3KB-15" value="Mavlink Command Handler&amp;nbsp;" style="rounded=0;whiteSpace=wrap;html=1;dashed=1;" vertex="1" parent="1">
          <mxGeometry x="250.06" y="125" width="119.94" height="80" as="geometry" />
        </mxCell>
        <mxCell id="x8476iQVBlh_GbGHP3KB-16" value="Mavlink Message Handler" style="rounded=0;whiteSpace=wrap;html=1;" vertex="1" parent="1">
          <mxGeometry x="250.06" y="220" width="120" height="200" as="geometry" />
        </mxCell>
        <mxCell id="x8476iQVBlh_GbGHP3KB-17" value="Mavlink Print Info" style="rounded=0;whiteSpace=wrap;html=1;" vertex="1" parent="1">
          <mxGeometry x="10.000000000000004" y="570" width="120" height="60" as="geometry" />
        </mxCell>
        <mxCell id="x8476iQVBlh_GbGHP3KB-27" value="serial write" style="edgeStyle=orthogonalEdgeStyle;rounded=0;orthogonalLoop=1;jettySize=auto;html=1;dashed=1;" edge="1" parent="1">
          <mxGeometry relative="1" as="geometry">
            <mxPoint x="140" y="185" as="sourcePoint" />
            <mxPoint x="250" y="185" as="targetPoint" />
            <Array as="points">
              <mxPoint x="160" y="185" />
              <mxPoint x="160" y="185" />
            </Array>
          </mxGeometry>
        </mxCell>
        <mxCell id="x8476iQVBlh_GbGHP3KB-29" style="edgeStyle=orthogonalEdgeStyle;rounded=0;orthogonalLoop=1;jettySize=auto;html=1;exitX=1;exitY=0.75;exitDx=0;exitDy=0;dashed=1;" edge="1" parent="1" source="x8476iQVBlh_GbGHP3KB-21">
          <mxGeometry relative="1" as="geometry">
            <mxPoint x="250" y="245" as="sourcePoint" />
            <mxPoint x="250" y="245" as="targetPoint" />
            <Array as="points">
              <mxPoint x="250" y="245" />
            </Array>
          </mxGeometry>
        </mxCell>
        <mxCell id="x8476iQVBlh_GbGHP3KB-32" value="serial read" style="edgeLabel;html=1;align=center;verticalAlign=middle;resizable=0;points=[];" vertex="1" connectable="0" parent="x8476iQVBlh_GbGHP3KB-29">
          <mxGeometry x="-0.2576" y="-1" relative="1" as="geometry">
            <mxPoint x="12" y="-1" as="offset" />
          </mxGeometry>
        </mxCell>
        <mxCell id="x8476iQVBlh_GbGHP3KB-21" value="Serial Comm" style="rounded=0;whiteSpace=wrap;html=1;dashed=1;" vertex="1" parent="1">
          <mxGeometry x="20" y="165" width="120" height="95" as="geometry" />
        </mxCell>
        <mxCell id="x8476iQVBlh_GbGHP3KB-23" value="Vehicle Controller" style="rounded=0;whiteSpace=wrap;html=1;" vertex="1" parent="1">
          <mxGeometry x="850" y="135" width="120" height="60" as="geometry" />
        </mxCell>
        <mxCell id="x8476iQVBlh_GbGHP3KB-24" value="Velocity Controller&lt;span style=&quot;color: rgba(0, 0, 0, 0); font-family: monospace; font-size: 0px; text-align: start; text-wrap: nowrap;&quot;&gt;%3CmxGraphModel%3E%3Croot%3E%3CmxCell%20id%3D%220%22%2F%3E%3CmxCell%20id%3D%221%22%20parent%3D%220%22%2F%3E%3CmxCell%20id%3D%222%22%20value%3D%22Vehicle%20Controller%22%20style%3D%22rounded%3D0%3BwhiteSpace%3Dwrap%3Bhtml%3D1%3B%22%20vertex%3D%221%22%20parent%3D%221%22%3E%3CmxGeometry%20x%3D%22720%22%20y%3D%22760%22%20width%3D%22120%22%20height%3D%2260%22%20as%3D%22geometry%22%2F%3E%3C%2FmxCell%3E%3C%2Froot%3E%3C%2FmxGraphModel%3E&lt;/span&gt;" style="rounded=0;whiteSpace=wrap;html=1;dashed=1;" vertex="1" parent="1">
          <mxGeometry x="570" y="170" width="120" height="60" as="geometry" />
        </mxCell>
        <mxCell id="x8476iQVBlh_GbGHP3KB-66" style="edgeStyle=orthogonalEdgeStyle;rounded=0;orthogonalLoop=1;jettySize=auto;html=1;" edge="1" parent="1">
          <mxGeometry relative="1" as="geometry">
            <mxPoint x="480.06" y="230" as="targetPoint" />
            <mxPoint x="370.06" y="230" as="sourcePoint" />
            <Array as="points">
              <mxPoint x="480.06" y="230" />
            </Array>
          </mxGeometry>
        </mxCell>
        <mxCell id="x8476iQVBlh_GbGHP3KB-67" value="gps loc" style="edgeLabel;html=1;align=center;verticalAlign=middle;resizable=0;points=[];" vertex="1" connectable="0" parent="x8476iQVBlh_GbGHP3KB-66">
          <mxGeometry x="-0.0238" y="-2" relative="1" as="geometry">
            <mxPoint y="-2" as="offset" />
          </mxGeometry>
        </mxCell>
        <mxCell id="x8476iQVBlh_GbGHP3KB-68" style="edgeStyle=orthogonalEdgeStyle;rounded=0;orthogonalLoop=1;jettySize=auto;html=1;" edge="1" parent="1">
          <mxGeometry relative="1" as="geometry">
            <mxPoint x="480.06" y="250" as="targetPoint" />
            <mxPoint x="370.06" y="250" as="sourcePoint" />
            <Array as="points">
              <mxPoint x="480.06" y="250" />
            </Array>
          </mxGeometry>
        </mxCell>
        <mxCell id="x8476iQVBlh_GbGHP3KB-69" value="heading" style="edgeLabel;html=1;align=center;verticalAlign=middle;resizable=0;points=[];" vertex="1" connectable="0" parent="x8476iQVBlh_GbGHP3KB-68">
          <mxGeometry x="-0.0238" y="-2" relative="1" as="geometry">
            <mxPoint y="-2" as="offset" />
          </mxGeometry>
        </mxCell>
        <mxCell id="x8476iQVBlh_GbGHP3KB-70" style="edgeStyle=orthogonalEdgeStyle;rounded=0;orthogonalLoop=1;jettySize=auto;html=1;" edge="1" parent="1">
          <mxGeometry relative="1" as="geometry">
            <mxPoint x="480.06" y="270" as="targetPoint" />
            <mxPoint x="370.06" y="270" as="sourcePoint" />
            <Array as="points">
              <mxPoint x="480.06" y="270" />
            </Array>
          </mxGeometry>
        </mxCell>
        <mxCell id="x8476iQVBlh_GbGHP3KB-71" value="height" style="edgeLabel;html=1;align=center;verticalAlign=middle;resizable=0;points=[];" vertex="1" connectable="0" parent="x8476iQVBlh_GbGHP3KB-70">
          <mxGeometry x="-0.0238" y="-2" relative="1" as="geometry">
            <mxPoint y="-2" as="offset" />
          </mxGeometry>
        </mxCell>
        <mxCell id="x8476iQVBlh_GbGHP3KB-72" style="edgeStyle=orthogonalEdgeStyle;rounded=0;orthogonalLoop=1;jettySize=auto;html=1;" edge="1" parent="1">
          <mxGeometry relative="1" as="geometry">
            <mxPoint x="480.06" y="290" as="targetPoint" />
            <mxPoint x="370.06" y="290" as="sourcePoint" />
            <Array as="points">
              <mxPoint x="480.06" y="290" />
            </Array>
          </mxGeometry>
        </mxCell>
        <mxCell id="x8476iQVBlh_GbGHP3KB-73" value="accel (x,y,z)" style="edgeLabel;html=1;align=center;verticalAlign=middle;resizable=0;points=[];" vertex="1" connectable="0" parent="x8476iQVBlh_GbGHP3KB-72">
          <mxGeometry x="-0.0238" y="-2" relative="1" as="geometry">
            <mxPoint y="-2" as="offset" />
          </mxGeometry>
        </mxCell>
        <mxCell id="x8476iQVBlh_GbGHP3KB-74" style="edgeStyle=orthogonalEdgeStyle;rounded=0;orthogonalLoop=1;jettySize=auto;html=1;" edge="1" parent="1">
          <mxGeometry relative="1" as="geometry">
            <mxPoint x="480.06" y="310" as="targetPoint" />
            <mxPoint x="370.06" y="310" as="sourcePoint" />
            <Array as="points">
              <mxPoint x="480.06" y="310" />
            </Array>
          </mxGeometry>
        </mxCell>
        <mxCell id="x8476iQVBlh_GbGHP3KB-75" value="flow x" style="edgeLabel;html=1;align=center;verticalAlign=middle;resizable=0;points=[];" vertex="1" connectable="0" parent="x8476iQVBlh_GbGHP3KB-74">
          <mxGeometry x="-0.0238" y="-2" relative="1" as="geometry">
            <mxPoint y="-2" as="offset" />
          </mxGeometry>
        </mxCell>
        <mxCell id="x8476iQVBlh_GbGHP3KB-76" style="edgeStyle=orthogonalEdgeStyle;rounded=0;orthogonalLoop=1;jettySize=auto;html=1;" edge="1" parent="1">
          <mxGeometry relative="1" as="geometry">
            <mxPoint x="480.06" y="330" as="targetPoint" />
            <mxPoint x="370.06" y="330" as="sourcePoint" />
            <Array as="points">
              <mxPoint x="480.06" y="330" />
            </Array>
          </mxGeometry>
        </mxCell>
        <mxCell id="x8476iQVBlh_GbGHP3KB-77" value="flow y" style="edgeLabel;html=1;align=center;verticalAlign=middle;resizable=0;points=[];" vertex="1" connectable="0" parent="x8476iQVBlh_GbGHP3KB-76">
          <mxGeometry x="-0.0238" y="-2" relative="1" as="geometry">
            <mxPoint y="-2" as="offset" />
          </mxGeometry>
        </mxCell>
        <mxCell id="x8476iQVBlh_GbGHP3KB-91" style="edgeStyle=orthogonalEdgeStyle;rounded=0;orthogonalLoop=1;jettySize=auto;html=1;" edge="1" parent="1">
          <mxGeometry relative="1" as="geometry">
            <mxPoint x="480.06" y="349.16999999999996" as="targetPoint" />
            <mxPoint x="370.06" y="349.16999999999996" as="sourcePoint" />
            <Array as="points">
              <mxPoint x="480.06" y="349.16999999999996" />
            </Array>
          </mxGeometry>
        </mxCell>
        <mxCell id="x8476iQVBlh_GbGHP3KB-92" value="mav cmd resp" style="edgeLabel;html=1;align=center;verticalAlign=middle;resizable=0;points=[];" vertex="1" connectable="0" parent="x8476iQVBlh_GbGHP3KB-91">
          <mxGeometry x="-0.0238" y="-2" relative="1" as="geometry">
            <mxPoint y="-1" as="offset" />
          </mxGeometry>
        </mxCell>
        <mxCell id="x8476iQVBlh_GbGHP3KB-93" style="edgeStyle=orthogonalEdgeStyle;rounded=0;orthogonalLoop=1;jettySize=auto;html=1;" edge="1" parent="1">
          <mxGeometry relative="1" as="geometry">
            <mxPoint x="480.06" y="369.16999999999996" as="targetPoint" />
            <mxPoint x="370.06" y="369.16999999999996" as="sourcePoint" />
            <Array as="points">
              <mxPoint x="480.06" y="369.16999999999996" />
            </Array>
          </mxGeometry>
        </mxCell>
        <mxCell id="x8476iQVBlh_GbGHP3KB-94" value="batt (I,V,SOC)" style="edgeLabel;html=1;align=center;verticalAlign=middle;resizable=0;points=[];" vertex="1" connectable="0" parent="x8476iQVBlh_GbGHP3KB-93">
          <mxGeometry x="-0.0238" y="-2" relative="1" as="geometry">
            <mxPoint y="-1" as="offset" />
          </mxGeometry>
        </mxCell>
        <mxCell id="x8476iQVBlh_GbGHP3KB-95" style="edgeStyle=orthogonalEdgeStyle;rounded=0;orthogonalLoop=1;jettySize=auto;html=1;" edge="1" parent="1">
          <mxGeometry relative="1" as="geometry">
            <mxPoint x="480.06" y="389.16999999999996" as="targetPoint" />
            <mxPoint x="370.06" y="389.16999999999996" as="sourcePoint" />
            <Array as="points">
              <mxPoint x="480.06" y="389.16999999999996" />
            </Array>
          </mxGeometry>
        </mxCell>
        <mxCell id="x8476iQVBlh_GbGHP3KB-96" value="height" style="edgeLabel;html=1;align=center;verticalAlign=middle;resizable=0;points=[];" vertex="1" connectable="0" parent="x8476iQVBlh_GbGHP3KB-95">
          <mxGeometry x="-0.0238" y="-2" relative="1" as="geometry">
            <mxPoint y="-1" as="offset" />
          </mxGeometry>
        </mxCell>
        <mxCell id="x8476iQVBlh_GbGHP3KB-97" style="edgeStyle=orthogonalEdgeStyle;rounded=0;orthogonalLoop=1;jettySize=auto;html=1;" edge="1" parent="1">
          <mxGeometry relative="1" as="geometry">
            <mxPoint x="480.06" y="409.16999999999996" as="targetPoint" />
            <mxPoint x="370.06" y="409.16999999999996" as="sourcePoint" />
            <Array as="points">
              <mxPoint x="480.06" y="409.16999999999996" />
            </Array>
          </mxGeometry>
        </mxCell>
        <mxCell id="x8476iQVBlh_GbGHP3KB-98" value="mav veh state" style="edgeLabel;html=1;align=center;verticalAlign=middle;resizable=0;points=[];" vertex="1" connectable="0" parent="x8476iQVBlh_GbGHP3KB-97">
          <mxGeometry x="-0.0238" y="-2" relative="1" as="geometry">
            <mxPoint y="-1" as="offset" />
          </mxGeometry>
        </mxCell>
        <mxCell id="x8476iQVBlh_GbGHP3KB-121" value="&lt;font style=&quot;font-size: 36px;&quot;&gt;Software Components&lt;/font&gt;" style="text;html=1;align=center;verticalAlign=middle;whiteSpace=wrap;rounded=0;" vertex="1" parent="1">
          <mxGeometry y="10" width="360" height="40" as="geometry" />
        </mxCell>
        <mxCell id="x8476iQVBlh_GbGHP3KB-122" value="ArduPilot" style="rounded=0;whiteSpace=wrap;html=1;" vertex="1" parent="1">
          <mxGeometry x="20" y="275" width="120" height="60" as="geometry" />
        </mxCell>
        <mxCell id="x8476iQVBlh_GbGHP3KB-130" value="" style="endArrow=classic;startArrow=classic;html=1;rounded=0;exitX=1;exitY=0.5;exitDx=0;exitDy=0;entryX=0;entryY=0.475;entryDx=0;entryDy=0;entryPerimeter=0;" edge="1" parent="1" source="x8476iQVBlh_GbGHP3KB-122">
          <mxGeometry width="50" height="50" relative="1" as="geometry">
            <mxPoint x="130.06" y="255" as="sourcePoint" />
            <mxPoint x="250.06" y="305" as="targetPoint" />
          </mxGeometry>
        </mxCell>
        <mxCell id="x8476iQVBlh_GbGHP3KB-139" value="" style="endArrow=none;dashed=1;html=1;strokeWidth=2;rounded=0;" edge="1" parent="1">
          <mxGeometry width="50" height="50" relative="1" as="geometry">
            <mxPoint x="690" y="129.87" as="sourcePoint" />
            <mxPoint x="820" y="130" as="targetPoint" />
          </mxGeometry>
        </mxCell>
        <mxCell id="x8476iQVBlh_GbGHP3KB-140" value="att control interfaces" style="edgeLabel;html=1;align=center;verticalAlign=middle;resizable=0;points=[];" vertex="1" connectable="0" parent="x8476iQVBlh_GbGHP3KB-139">
          <mxGeometry x="0.4" relative="1" as="geometry">
            <mxPoint x="-24" as="offset" />
          </mxGeometry>
        </mxCell>
        <mxCell id="x8476iQVBlh_GbGHP3KB-142" value="" style="endArrow=none;dashed=1;html=1;strokeWidth=2;rounded=0;" edge="1" parent="1">
          <mxGeometry width="50" height="50" relative="1" as="geometry">
            <mxPoint x="690" y="199.87" as="sourcePoint" />
            <mxPoint x="820" y="200" as="targetPoint" />
          </mxGeometry>
        </mxCell>
        <mxCell id="x8476iQVBlh_GbGHP3KB-143" value="vel control interfaces" style="edgeLabel;html=1;align=center;verticalAlign=middle;resizable=0;points=[];" vertex="1" connectable="0" parent="x8476iQVBlh_GbGHP3KB-142">
          <mxGeometry x="0.4" relative="1" as="geometry">
            <mxPoint x="-24" as="offset" />
          </mxGeometry>
        </mxCell>
        <mxCell id="x8476iQVBlh_GbGHP3KB-144" value="" style="endArrow=none;dashed=1;html=1;strokeWidth=2;rounded=0;" edge="1" parent="1">
          <mxGeometry width="50" height="50" relative="1" as="geometry">
            <mxPoint x="370.06" y="165.28999999999996" as="sourcePoint" />
            <mxPoint x="530.06" y="165" as="targetPoint" />
          </mxGeometry>
        </mxCell>
        <mxCell id="x8476iQVBlh_GbGHP3KB-145" value="mav cmd interfaces" style="edgeLabel;html=1;align=center;verticalAlign=middle;resizable=0;points=[];" vertex="1" connectable="0" parent="x8476iQVBlh_GbGHP3KB-144">
          <mxGeometry x="0.4" relative="1" as="geometry">
            <mxPoint x="-24" as="offset" />
          </mxGeometry>
        </mxCell>
        <mxCell id="x8476iQVBlh_GbGHP3KB-147" value="" style="endArrow=none;dashed=1;html=1;strokeWidth=2;rounded=0;entryX=0;entryY=0.5;entryDx=0;entryDy=0;" edge="1" parent="1" target="x8476iQVBlh_GbGHP3KB-11">
          <mxGeometry width="50" height="50" relative="1" as="geometry">
            <mxPoint x="530" y="165" as="sourcePoint" />
            <mxPoint x="550" y="145" as="targetPoint" />
          </mxGeometry>
        </mxCell>
        <mxCell id="x8476iQVBlh_GbGHP3KB-148" value="" style="endArrow=none;dashed=1;html=1;strokeWidth=2;rounded=0;entryX=0;entryY=0.5;entryDx=0;entryDy=0;" edge="1" parent="1" target="x8476iQVBlh_GbGHP3KB-24">
          <mxGeometry width="50" height="50" relative="1" as="geometry">
            <mxPoint x="530" y="165" as="sourcePoint" />
            <mxPoint x="560" y="155" as="targetPoint" />
          </mxGeometry>
        </mxCell>
        <mxCell id="x8476iQVBlh_GbGHP3KB-149" value="" style="endArrow=none;dashed=1;html=1;strokeWidth=2;rounded=0;entryX=0;entryY=0.5;entryDx=0;entryDy=0;" edge="1" parent="1" target="x8476iQVBlh_GbGHP3KB-23">
          <mxGeometry width="50" height="50" relative="1" as="geometry">
            <mxPoint x="820" y="195" as="sourcePoint" />
            <mxPoint x="880" y="215" as="targetPoint" />
          </mxGeometry>
        </mxCell>
        <mxCell id="x8476iQVBlh_GbGHP3KB-150" value="" style="endArrow=none;dashed=1;html=1;strokeWidth=2;rounded=0;entryX=0;entryY=0.5;entryDx=0;entryDy=0;" edge="1" parent="1" target="x8476iQVBlh_GbGHP3KB-23">
          <mxGeometry width="50" height="50" relative="1" as="geometry">
            <mxPoint x="820" y="135" as="sourcePoint" />
            <mxPoint x="930" y="50" as="targetPoint" />
          </mxGeometry>
        </mxCell>
        <mxCell id="x8476iQVBlh_GbGHP3KB-163" value="" style="curved=1;endArrow=classic;html=1;rounded=0;entryX=0.25;entryY=1;entryDx=0;entryDy=0;" edge="1" parent="1" target="x8476iQVBlh_GbGHP3KB-23">
          <mxGeometry width="50" height="50" relative="1" as="geometry">
            <mxPoint x="900" y="290" as="sourcePoint" />
            <mxPoint x="640" y="340" as="targetPoint" />
            <Array as="points">
              <mxPoint x="910" y="280" />
              <mxPoint x="910" y="240" />
            </Array>
          </mxGeometry>
        </mxCell>
        <mxCell id="x8476iQVBlh_GbGHP3KB-188" value="" style="group" vertex="1" connectable="0" parent="1">
          <mxGeometry x="540" y="380" width="250" height="120" as="geometry" />
        </mxCell>
        <mxCell id="x8476iQVBlh_GbGHP3KB-33" style="edgeStyle=orthogonalEdgeStyle;rounded=0;orthogonalLoop=1;jettySize=auto;html=1;" edge="1" parent="x8476iQVBlh_GbGHP3KB-188" source="x8476iQVBlh_GbGHP3KB-25">
          <mxGeometry relative="1" as="geometry">
            <mxPoint x="240" y="30" as="targetPoint" />
            <Array as="points">
              <mxPoint x="240" y="30" />
            </Array>
          </mxGeometry>
        </mxCell>
        <mxCell id="x8476iQVBlh_GbGHP3KB-37" value="video height" style="edgeLabel;html=1;align=center;verticalAlign=middle;resizable=0;points=[];" vertex="1" connectable="0" parent="x8476iQVBlh_GbGHP3KB-33">
          <mxGeometry x="-0.0238" y="-2" relative="1" as="geometry">
            <mxPoint y="-2" as="offset" />
          </mxGeometry>
        </mxCell>
        <mxCell id="x8476iQVBlh_GbGHP3KB-25" value="Video IO" style="rounded=0;whiteSpace=wrap;html=1;" vertex="1" parent="x8476iQVBlh_GbGHP3KB-188">
          <mxGeometry x="10" y="10" width="120" height="100" as="geometry" />
        </mxCell>
        <mxCell id="x8476iQVBlh_GbGHP3KB-39" style="edgeStyle=orthogonalEdgeStyle;rounded=0;orthogonalLoop=1;jettySize=auto;html=1;" edge="1" parent="x8476iQVBlh_GbGHP3KB-188">
          <mxGeometry relative="1" as="geometry">
            <mxPoint x="240" y="50" as="targetPoint" />
            <mxPoint x="130" y="50" as="sourcePoint" />
            <Array as="points">
              <mxPoint x="200" y="50" />
            </Array>
          </mxGeometry>
        </mxCell>
        <mxCell id="x8476iQVBlh_GbGHP3KB-40" value="video width" style="edgeLabel;html=1;align=center;verticalAlign=middle;resizable=0;points=[];" vertex="1" connectable="0" parent="x8476iQVBlh_GbGHP3KB-39">
          <mxGeometry x="-0.0238" y="-2" relative="1" as="geometry">
            <mxPoint y="-2" as="offset" />
          </mxGeometry>
        </mxCell>
        <mxCell id="x8476iQVBlh_GbGHP3KB-41" style="edgeStyle=orthogonalEdgeStyle;rounded=0;orthogonalLoop=1;jettySize=auto;html=1;" edge="1" parent="x8476iQVBlh_GbGHP3KB-188">
          <mxGeometry relative="1" as="geometry">
            <mxPoint x="240" y="70" as="targetPoint" />
            <mxPoint x="130" y="70" as="sourcePoint" />
            <Array as="points">
              <mxPoint x="200" y="70" />
            </Array>
          </mxGeometry>
        </mxCell>
        <mxCell id="x8476iQVBlh_GbGHP3KB-42" value="image" style="edgeLabel;html=1;align=center;verticalAlign=middle;resizable=0;points=[];" vertex="1" connectable="0" parent="x8476iQVBlh_GbGHP3KB-41">
          <mxGeometry x="-0.0238" y="-2" relative="1" as="geometry">
            <mxPoint y="-2" as="offset" />
          </mxGeometry>
        </mxCell>
        <mxCell id="x8476iQVBlh_GbGHP3KB-43" style="edgeStyle=orthogonalEdgeStyle;rounded=0;orthogonalLoop=1;jettySize=auto;html=1;" edge="1" parent="x8476iQVBlh_GbGHP3KB-188">
          <mxGeometry relative="1" as="geometry">
            <mxPoint x="240" y="89.57999999999993" as="targetPoint" />
            <mxPoint x="130" y="89.57999999999993" as="sourcePoint" />
            <Array as="points">
              <mxPoint x="200" y="89.57999999999993" />
            </Array>
          </mxGeometry>
        </mxCell>
        <mxCell id="x8476iQVBlh_GbGHP3KB-45" value="valid image" style="edgeLabel;html=1;align=center;verticalAlign=middle;resizable=0;points=[];" vertex="1" connectable="0" parent="x8476iQVBlh_GbGHP3KB-43">
          <mxGeometry x="-0.1212" y="-3" relative="1" as="geometry">
            <mxPoint x="2" y="-3" as="offset" />
          </mxGeometry>
        </mxCell>
        <mxCell id="x8476iQVBlh_GbGHP3KB-167" value="" style="swimlane;startSize=0;" vertex="1" parent="x8476iQVBlh_GbGHP3KB-188">
          <mxGeometry width="250" height="120" as="geometry">
            <mxRectangle x="10" y="500" width="50" height="40" as="alternateBounds" />
          </mxGeometry>
        </mxCell>
        <mxCell id="x8476iQVBlh_GbGHP3KB-189" value="" style="group" vertex="1" connectable="0" parent="1">
          <mxGeometry x="640" y="260" width="250" height="80" as="geometry" />
        </mxCell>
        <mxCell id="x8476iQVBlh_GbGHP3KB-13" value="Follow Target" style="rounded=0;whiteSpace=wrap;html=1;" vertex="1" parent="x8476iQVBlh_GbGHP3KB-189">
          <mxGeometry x="9.940000000000055" y="10" width="120" height="60" as="geometry" />
        </mxCell>
        <mxCell id="x8476iQVBlh_GbGHP3KB-164" value="" style="swimlane;startSize=0;" vertex="1" parent="x8476iQVBlh_GbGHP3KB-189">
          <mxGeometry width="250" height="80" as="geometry" />
        </mxCell>
        <mxCell id="x8476iQVBlh_GbGHP3KB-245" style="edgeStyle=orthogonalEdgeStyle;rounded=0;orthogonalLoop=1;jettySize=auto;html=1;" edge="1" parent="x8476iQVBlh_GbGHP3KB-164">
          <mxGeometry relative="1" as="geometry">
            <mxPoint x="239.94000000000005" y="19.999999999999886" as="targetPoint" />
            <mxPoint x="129.94000000000005" y="19.999999999999886" as="sourcePoint" />
            <Array as="points">
              <mxPoint x="199.94000000000005" y="19.999999999999886" />
            </Array>
          </mxGeometry>
        </mxCell>
        <mxCell id="x8476iQVBlh_GbGHP3KB-246" value="x control" style="edgeLabel;html=1;align=center;verticalAlign=middle;resizable=0;points=[];" vertex="1" connectable="0" parent="x8476iQVBlh_GbGHP3KB-245">
          <mxGeometry x="-0.1212" y="-3" relative="1" as="geometry">
            <mxPoint x="2" y="-3" as="offset" />
          </mxGeometry>
        </mxCell>
        <mxCell id="x8476iQVBlh_GbGHP3KB-248" style="edgeStyle=orthogonalEdgeStyle;rounded=0;orthogonalLoop=1;jettySize=auto;html=1;" edge="1" parent="x8476iQVBlh_GbGHP3KB-164">
          <mxGeometry relative="1" as="geometry">
            <mxPoint x="239.94000000000005" y="39.709999999999866" as="targetPoint" />
            <mxPoint x="129.94000000000005" y="39.709999999999866" as="sourcePoint" />
            <Array as="points">
              <mxPoint x="199.94000000000005" y="39.709999999999866" />
            </Array>
          </mxGeometry>
        </mxCell>
        <mxCell id="x8476iQVBlh_GbGHP3KB-249" value="y control" style="edgeLabel;html=1;align=center;verticalAlign=middle;resizable=0;points=[];" vertex="1" connectable="0" parent="x8476iQVBlh_GbGHP3KB-248">
          <mxGeometry x="-0.1212" y="-3" relative="1" as="geometry">
            <mxPoint x="2" y="-3" as="offset" />
          </mxGeometry>
        </mxCell>
        <mxCell id="x8476iQVBlh_GbGHP3KB-250" style="edgeStyle=orthogonalEdgeStyle;rounded=0;orthogonalLoop=1;jettySize=auto;html=1;" edge="1" parent="x8476iQVBlh_GbGHP3KB-164">
          <mxGeometry relative="1" as="geometry">
            <mxPoint x="239.94000000000005" y="59.709999999999866" as="targetPoint" />
            <mxPoint x="129.94000000000005" y="59.709999999999866" as="sourcePoint" />
            <Array as="points">
              <mxPoint x="199.94000000000005" y="59.709999999999866" />
            </Array>
          </mxGeometry>
        </mxCell>
        <mxCell id="x8476iQVBlh_GbGHP3KB-251" value="z control" style="edgeLabel;html=1;align=center;verticalAlign=middle;resizable=0;points=[];" vertex="1" connectable="0" parent="x8476iQVBlh_GbGHP3KB-250">
          <mxGeometry x="-0.1212" y="-3" relative="1" as="geometry">
            <mxPoint x="2" y="-3" as="offset" />
          </mxGeometry>
        </mxCell>
        <mxCell id="x8476iQVBlh_GbGHP3KB-190" value="" style="group" vertex="1" connectable="0" parent="1">
          <mxGeometry x="540" y="510" width="250" height="90" as="geometry" />
        </mxCell>
        <mxCell id="x8476iQVBlh_GbGHP3KB-18" value="Object Detection" style="rounded=0;whiteSpace=wrap;html=1;" vertex="1" parent="x8476iQVBlh_GbGHP3KB-190">
          <mxGeometry x="10.059999999999945" y="10" width="120" height="70" as="geometry" />
        </mxCell>
        <mxCell id="x8476iQVBlh_GbGHP3KB-48" style="edgeStyle=orthogonalEdgeStyle;rounded=0;orthogonalLoop=1;jettySize=auto;html=1;" edge="1" parent="x8476iQVBlh_GbGHP3KB-190">
          <mxGeometry relative="1" as="geometry">
            <mxPoint x="240.05999999999995" y="44.59000000000003" as="targetPoint" />
            <mxPoint x="130.05999999999995" y="44.59000000000003" as="sourcePoint" />
            <Array as="points">
              <mxPoint x="200.05999999999995" y="44.59000000000003" />
            </Array>
          </mxGeometry>
        </mxCell>
        <mxCell id="x8476iQVBlh_GbGHP3KB-49" value="num detections" style="edgeLabel;html=1;align=center;verticalAlign=middle;resizable=0;points=[];" vertex="1" connectable="0" parent="x8476iQVBlh_GbGHP3KB-48">
          <mxGeometry x="-0.0238" y="-2" relative="1" as="geometry">
            <mxPoint y="-2" as="offset" />
          </mxGeometry>
        </mxCell>
        <mxCell id="x8476iQVBlh_GbGHP3KB-187" value="" style="swimlane;startSize=0;" vertex="1" parent="x8476iQVBlh_GbGHP3KB-190">
          <mxGeometry width="250" height="90" as="geometry">
            <mxRectangle x="10" y="500" width="50" height="40" as="alternateBounds" />
          </mxGeometry>
        </mxCell>
        <mxCell id="x8476iQVBlh_GbGHP3KB-241" style="edgeStyle=orthogonalEdgeStyle;rounded=0;orthogonalLoop=1;jettySize=auto;html=1;" edge="1" parent="x8476iQVBlh_GbGHP3KB-187">
          <mxGeometry relative="1" as="geometry">
            <mxPoint x="239.99999999999994" y="19.709999999999923" as="targetPoint" />
            <mxPoint x="129.99999999999994" y="19.709999999999923" as="sourcePoint" />
            <Array as="points">
              <mxPoint x="199.99999999999994" y="19.709999999999923" />
            </Array>
          </mxGeometry>
        </mxCell>
        <mxCell id="x8476iQVBlh_GbGHP3KB-242" value="network" style="edgeLabel;html=1;align=center;verticalAlign=middle;resizable=0;points=[];" vertex="1" connectable="0" parent="x8476iQVBlh_GbGHP3KB-241">
          <mxGeometry x="-0.1212" y="-3" relative="1" as="geometry">
            <mxPoint x="2" y="-3" as="offset" />
          </mxGeometry>
        </mxCell>
        <mxCell id="x8476iQVBlh_GbGHP3KB-243" style="edgeStyle=orthogonalEdgeStyle;rounded=0;orthogonalLoop=1;jettySize=auto;html=1;" edge="1" parent="x8476iQVBlh_GbGHP3KB-187">
          <mxGeometry relative="1" as="geometry">
            <mxPoint x="240" y="69.99999999999989" as="targetPoint" />
            <mxPoint x="130" y="69.99999999999989" as="sourcePoint" />
            <Array as="points">
              <mxPoint x="200" y="69.99999999999989" />
            </Array>
          </mxGeometry>
        </mxCell>
        <mxCell id="x8476iQVBlh_GbGHP3KB-244" value="detection" style="edgeLabel;html=1;align=center;verticalAlign=middle;resizable=0;points=[];" vertex="1" connectable="0" parent="x8476iQVBlh_GbGHP3KB-243">
          <mxGeometry x="-0.1212" y="-3" relative="1" as="geometry">
            <mxPoint x="2" y="-3" as="offset" />
          </mxGeometry>
        </mxCell>
        <mxCell id="x8476iQVBlh_GbGHP3KB-191" value="" style="group" vertex="1" connectable="0" parent="1">
          <mxGeometry x="860" y="510" width="230" height="60" as="geometry" />
        </mxCell>
        <mxCell id="x8476iQVBlh_GbGHP3KB-26" value="System Controller" style="rounded=0;whiteSpace=wrap;html=1;" vertex="1" parent="x8476iQVBlh_GbGHP3KB-191">
          <mxGeometry width="120" height="60" as="geometry" />
        </mxCell>
        <mxCell id="x8476iQVBlh_GbGHP3KB-64" style="edgeStyle=orthogonalEdgeStyle;rounded=0;orthogonalLoop=1;jettySize=auto;html=1;" edge="1" parent="x8476iQVBlh_GbGHP3KB-191">
          <mxGeometry relative="1" as="geometry">
            <mxPoint x="230" y="29.510000000000105" as="targetPoint" />
            <mxPoint x="120" y="29.510000000000105" as="sourcePoint" />
            <Array as="points">
              <mxPoint x="230" y="29.510000000000105" />
            </Array>
          </mxGeometry>
        </mxCell>
        <mxCell id="x8476iQVBlh_GbGHP3KB-65" value="system state" style="edgeLabel;html=1;align=center;verticalAlign=middle;resizable=0;points=[];" vertex="1" connectable="0" parent="x8476iQVBlh_GbGHP3KB-64">
          <mxGeometry x="-0.0238" y="-2" relative="1" as="geometry">
            <mxPoint y="1" as="offset" />
          </mxGeometry>
        </mxCell>
        <mxCell id="x8476iQVBlh_GbGHP3KB-202" value="" style="group;dashed=1;strokeColor=default;" vertex="1" connectable="0" parent="1">
          <mxGeometry x="340" y="750" width="250" height="80" as="geometry" />
        </mxCell>
        <mxCell id="x8476iQVBlh_GbGHP3KB-14" value="Jetson IO" style="rounded=0;whiteSpace=wrap;html=1;dashed=1;" vertex="1" parent="x8476iQVBlh_GbGHP3KB-202">
          <mxGeometry x="10" y="10" width="120" height="60" as="geometry" />
        </mxCell>
        <mxCell id="x8476iQVBlh_GbGHP3KB-117" style="edgeStyle=orthogonalEdgeStyle;rounded=0;orthogonalLoop=1;jettySize=auto;html=1;dashed=1;" edge="1" parent="x8476iQVBlh_GbGHP3KB-202">
          <mxGeometry relative="1" as="geometry">
            <mxPoint x="240" y="29.659999999999968" as="targetPoint" />
            <mxPoint x="130" y="29.659999999999968" as="sourcePoint" />
            <Array as="points">
              <mxPoint x="240" y="29.659999999999968" />
            </Array>
          </mxGeometry>
        </mxCell>
        <mxCell id="x8476iQVBlh_GbGHP3KB-118" value="green led" style="edgeLabel;html=1;align=center;verticalAlign=middle;resizable=0;points=[];" vertex="1" connectable="0" parent="x8476iQVBlh_GbGHP3KB-117">
          <mxGeometry x="-0.0238" y="-2" relative="1" as="geometry">
            <mxPoint y="-2" as="offset" />
          </mxGeometry>
        </mxCell>
        <mxCell id="x8476iQVBlh_GbGHP3KB-119" style="edgeStyle=orthogonalEdgeStyle;rounded=0;orthogonalLoop=1;jettySize=auto;html=1;dashed=1;" edge="1" parent="x8476iQVBlh_GbGHP3KB-202">
          <mxGeometry relative="1" as="geometry">
            <mxPoint x="240" y="49.65999999999997" as="targetPoint" />
            <mxPoint x="130" y="49.65999999999997" as="sourcePoint" />
            <Array as="points">
              <mxPoint x="200" y="49.65999999999997" />
            </Array>
          </mxGeometry>
        </mxCell>
        <mxCell id="x8476iQVBlh_GbGHP3KB-120" value="red led" style="edgeLabel;html=1;align=center;verticalAlign=middle;resizable=0;points=[];" vertex="1" connectable="0" parent="x8476iQVBlh_GbGHP3KB-119">
          <mxGeometry x="-0.0238" y="-2" relative="1" as="geometry">
            <mxPoint y="-2" as="offset" />
          </mxGeometry>
        </mxCell>
        <mxCell id="x8476iQVBlh_GbGHP3KB-201" value="" style="swimlane;startSize=0;strokeColor=none;" vertex="1" parent="x8476iQVBlh_GbGHP3KB-202">
          <mxGeometry width="250" height="80" as="geometry" />
        </mxCell>
        <mxCell id="x8476iQVBlh_GbGHP3KB-203" value="" style="group" vertex="1" connectable="0" parent="1">
          <mxGeometry x="10" y="640" width="305" height="60" as="geometry" />
        </mxCell>
        <mxCell id="x8476iQVBlh_GbGHP3KB-22" value="Time Calc" style="rounded=0;whiteSpace=wrap;html=1;dashed=1;" vertex="1" parent="x8476iQVBlh_GbGHP3KB-203">
          <mxGeometry width="120" height="60" as="geometry" />
        </mxCell>
        <mxCell id="x8476iQVBlh_GbGHP3KB-234" value="" style="endArrow=classic;html=1;rounded=0;dashed=1;exitX=1;exitY=0.5;exitDx=0;exitDy=0;" edge="1" parent="x8476iQVBlh_GbGHP3KB-203" source="x8476iQVBlh_GbGHP3KB-22">
          <mxGeometry width="50" height="50" relative="1" as="geometry">
            <mxPoint x="127.5" y="40" as="sourcePoint" />
            <mxPoint x="300" y="30" as="targetPoint" />
          </mxGeometry>
        </mxCell>
        <mxCell id="x8476iQVBlh_GbGHP3KB-235" value="time calc functions" style="edgeLabel;html=1;align=center;verticalAlign=middle;resizable=0;points=[];" vertex="1" connectable="0" parent="x8476iQVBlh_GbGHP3KB-234">
          <mxGeometry x="-0.6517" relative="1" as="geometry">
            <mxPoint x="49" as="offset" />
          </mxGeometry>
        </mxCell>
        <mxCell id="x8476iQVBlh_GbGHP3KB-204" value="" style="group;dashed=1;" vertex="1" connectable="0" parent="1">
          <mxGeometry x="10" y="710" width="305" height="60" as="geometry" />
        </mxCell>
        <mxCell id="x8476iQVBlh_GbGHP3KB-20" value="PID Controller" style="rounded=0;whiteSpace=wrap;html=1;dashed=1;" vertex="1" parent="x8476iQVBlh_GbGHP3KB-204">
          <mxGeometry width="120" height="60" as="geometry" />
        </mxCell>
        <mxCell id="x8476iQVBlh_GbGHP3KB-236" value="" style="endArrow=classic;html=1;rounded=0;dashed=1;exitX=1;exitY=0.5;exitDx=0;exitDy=0;" edge="1" parent="x8476iQVBlh_GbGHP3KB-204">
          <mxGeometry width="50" height="50" relative="1" as="geometry">
            <mxPoint x="120" y="29.659999999999968" as="sourcePoint" />
            <mxPoint x="300" y="29.659999999999968" as="targetPoint" />
          </mxGeometry>
        </mxCell>
        <mxCell id="x8476iQVBlh_GbGHP3KB-237" value="control parameters" style="edgeLabel;html=1;align=center;verticalAlign=middle;resizable=0;points=[];" vertex="1" connectable="0" parent="x8476iQVBlh_GbGHP3KB-236">
          <mxGeometry x="-0.6517" relative="1" as="geometry">
            <mxPoint x="49" as="offset" />
          </mxGeometry>
        </mxCell>
        <mxCell id="x8476iQVBlh_GbGHP3KB-205" value="" style="group;dashed=1;" vertex="1" connectable="0" parent="1">
          <mxGeometry x="10" y="780" width="310" height="60" as="geometry" />
        </mxCell>
        <mxCell id="x8476iQVBlh_GbGHP3KB-19" value="Parameters" style="rounded=0;whiteSpace=wrap;html=1;dashed=1;" vertex="1" parent="x8476iQVBlh_GbGHP3KB-205">
          <mxGeometry width="120" height="60" as="geometry" />
        </mxCell>
        <mxCell id="x8476iQVBlh_GbGHP3KB-238" value="" style="endArrow=classic;html=1;rounded=0;dashed=1;exitX=1;exitY=0.5;exitDx=0;exitDy=0;" edge="1" parent="x8476iQVBlh_GbGHP3KB-205">
          <mxGeometry width="50" height="50" relative="1" as="geometry">
            <mxPoint x="120" y="29.659999999999968" as="sourcePoint" />
            <mxPoint x="300" y="29.659999999999968" as="targetPoint" />
          </mxGeometry>
        </mxCell>
        <mxCell id="x8476iQVBlh_GbGHP3KB-239" value="dynamically change params" style="edgeLabel;html=1;align=center;verticalAlign=middle;resizable=0;points=[];" vertex="1" connectable="0" parent="x8476iQVBlh_GbGHP3KB-238">
          <mxGeometry x="-0.6517" relative="1" as="geometry">
            <mxPoint x="59" as="offset" />
          </mxGeometry>
        </mxCell>
        <mxCell id="x8476iQVBlh_GbGHP3KB-206" value="" style="curved=1;endArrow=classic;html=1;rounded=0;exitX=0.5;exitY=0;exitDx=0;exitDy=0;entryX=0.25;entryY=1;entryDx=0;entryDy=0;" edge="1" parent="1" source="x8476iQVBlh_GbGHP3KB-167" target="x8476iQVBlh_GbGHP3KB-164">
          <mxGeometry width="50" height="50" relative="1" as="geometry">
            <mxPoint x="910" y="300" as="sourcePoint" />
            <mxPoint x="930" y="200" as="targetPoint" />
            <Array as="points" />
          </mxGeometry>
        </mxCell>
        <mxCell id="x8476iQVBlh_GbGHP3KB-208" value="" style="curved=1;endArrow=classic;html=1;rounded=0;exitX=1;exitY=0.5;exitDx=0;exitDy=0;entryX=0.906;entryY=1.011;entryDx=0;entryDy=0;entryPerimeter=0;" edge="1" parent="1" source="x8476iQVBlh_GbGHP3KB-187" target="x8476iQVBlh_GbGHP3KB-164">
          <mxGeometry width="50" height="50" relative="1" as="geometry">
            <mxPoint x="920" y="412.5" as="sourcePoint" />
            <mxPoint x="960" y="197.5" as="targetPoint" />
            <Array as="points">
              <mxPoint x="860" y="440" />
            </Array>
          </mxGeometry>
        </mxCell>
        <mxCell id="x8476iQVBlh_GbGHP3KB-218" value="" style="endArrow=none;dashed=1;html=1;rounded=0;" edge="1" parent="1">
          <mxGeometry width="50" height="50" relative="1" as="geometry">
            <mxPoint x="950" y="808.88" as="sourcePoint" />
            <mxPoint x="1060" y="809.17" as="targetPoint" />
          </mxGeometry>
        </mxCell>
        <mxCell id="x8476iQVBlh_GbGHP3KB-219" value="Function" style="edgeLabel;html=1;align=center;verticalAlign=middle;resizable=0;points=[];" vertex="1" connectable="0" parent="x8476iQVBlh_GbGHP3KB-218">
          <mxGeometry x="0.4" relative="1" as="geometry">
            <mxPoint x="-20" as="offset" />
          </mxGeometry>
        </mxCell>
        <mxCell id="x8476iQVBlh_GbGHP3KB-223" value="" style="endArrow=none;html=1;rounded=0;" edge="1" parent="1">
          <mxGeometry width="50" height="50" relative="1" as="geometry">
            <mxPoint x="950" y="829.17" as="sourcePoint" />
            <mxPoint x="1060" y="829.17" as="targetPoint" />
          </mxGeometry>
        </mxCell>
        <mxCell id="x8476iQVBlh_GbGHP3KB-224" value="Signal" style="edgeLabel;html=1;align=center;verticalAlign=middle;resizable=0;points=[];" vertex="1" connectable="0" parent="x8476iQVBlh_GbGHP3KB-223">
          <mxGeometry x="0.0519" relative="1" as="geometry">
            <mxPoint as="offset" />
          </mxGeometry>
        </mxCell>
        <mxCell id="x8476iQVBlh_GbGHP3KB-225" value="Provides signals" style="rounded=0;whiteSpace=wrap;html=1;" vertex="1" parent="1">
          <mxGeometry x="950" y="719.74" width="110" height="30" as="geometry" />
        </mxCell>
        <mxCell id="x8476iQVBlh_GbGHP3KB-226" value="Provides functions" style="rounded=0;whiteSpace=wrap;html=1;dashed=1;" vertex="1" parent="1">
          <mxGeometry x="950" y="759.74" width="110" height="30" as="geometry" />
        </mxCell>
        <mxCell id="x8476iQVBlh_GbGHP3KB-227" value="" style="swimlane;startSize=0;" vertex="1" parent="1">
          <mxGeometry x="940" y="710" width="130" height="130" as="geometry" />
        </mxCell>
        <mxCell id="x8476iQVBlh_GbGHP3KB-228" value="Legend" style="text;html=1;align=center;verticalAlign=middle;resizable=0;points=[];autosize=1;strokeColor=none;fillColor=none;" vertex="1" parent="1">
          <mxGeometry x="975" y="680" width="60" height="30" as="geometry" />
        </mxCell>
        <mxCell id="x8476iQVBlh_GbGHP3KB-231" value="" style="endArrow=classic;html=1;rounded=0;dashed=1;exitX=1;exitY=0.5;exitDx=0;exitDy=0;" edge="1" parent="1" source="x8476iQVBlh_GbGHP3KB-23">
          <mxGeometry width="50" height="50" relative="1" as="geometry">
            <mxPoint x="1020" y="160" as="sourcePoint" />
            <mxPoint x="1080" y="165" as="targetPoint" />
          </mxGeometry>
        </mxCell>
        <mxCell id="x8476iQVBlh_GbGHP3KB-232" value="vehicle action" style="edgeLabel;html=1;align=center;verticalAlign=middle;resizable=0;points=[];" vertex="1" connectable="0" parent="x8476iQVBlh_GbGHP3KB-231">
          <mxGeometry x="-0.4052" relative="1" as="geometry">
            <mxPoint x="17" as="offset" />
          </mxGeometry>
        </mxCell>
      </root>
    </mxGraphModel>
  </diagram>
</mxfile>
